Maitree-300.ufo
<glyph name="grave" format="2">
	<advance width="279"/>
	<unicode hex="0060"/>
	<note>
		grave
	</note>
	<outline>
		<contour>
			<point x="169" y="535" type="line"/>
			<point x="204" y="557" type="line"/>
			<point x="123" y="691" type="line"/>
			<point x="76" y="661" type="line"/>
		</contour>
	</outline>
</glyph>
<glyph name="acute" format="2">
	<advance width="278"/>
	<unicode hex="00B4"/>
	<note>
		acute
	</note>
	<outline>
		<contour>
			<point x="114" y="535" type="line"/>
			<point x="207" y="661" type="line"/>
			<point x="160" y="691" type="line"/>
			<point x="79" y="557" type="line"/>
		</contour>
	</outline>
</glyph>
<glyph name="Cacute" format="2">
	<advance width="647"/>
	<unicode hex="0106"/>
	<note>
		Cacute
	</note>
	<outline>
		<contour>
			<point x="354" y="751" type="line"/>
			<point x="447" y="877" type="line"/>
			<point x="400" y="907" type="line"/>
			<point x="319" y="773" type="line"/>
		</contour>
		<component base="C"/>
	</outline>
</glyph>
<glyph name="racute" format="2">
	<advance width="390"/>
	<unicode hex="0155"/>
	<note>
		racute
	</note>
	<outline>
		<contour>
			<point x="187" y="558" type="line"/>
			<point x="280" y="684" type="line"/>
			<point x="233" y="714" type="line"/>
			<point x="152" y="580" type="line"/>
		</contour>
		<component base="r"/>
	</outline>
</glyph>
<glyph name="uni02CC" format="2">
	<advance width="161"/>
	<unicode hex="02CC"/>
	<note>
		uni02CC
	</note>
	<outline>
		<contour>
			<point x="56" y="-134" type="line"/>
			<point x="105" y="-134" type="line"/>
			<point x="105" y="0" type="line"/>
			<point x="56" y="0" type="line"/>
		</contour>
	</outline>
</glyph>
<glyph name="acutecomb" format="2">
	<advance width="0"/>
	<unicode hex="0301"/>
	<note>
		acutecomb
	</note>
	<outline>
		<contour>
			<point x="-288" y="535" type="line"/>
			<point x="-196" y="661" type="line"/>
			<point x="-243" y="691" type="line"/>
			<point x="-323" y="557" type="line"/>
		</contour>
	</outline>
</glyph>
<glyph name="uni030C" format="2">
	<advance width="0"/>
	<unicode hex="030C"/>
	<note>
		uni030C
	</note>
	<outline>
		<contour>
			<point x="-248" y="535" type="line"/>
			<point x="-213" y="535" type="line"/>
			<point x="-111" y="663" type="line"/>
			<point x="-141" y="686" type="line"/>
			<point x="-230" y="591" type="line"/>
			<point x="-319" y="686" type="line"/>
			<point x="-349" y="663" type="line"/>
		</contour>
	</outline>
</glyph>
<glyph name="uni0326" format="2">
	<advance width="0"/>
	<unicode hex="0326"/>
	<note>
		uni0326
	</note>
	<outline>
		<contour>
			<point x="89" y="-200" type="line"/>
			<point x="191" y="-72" type="line"/>
			<point x="147" y="-45" type="line"/>
			<point x="60" y="-180" type="line"/>
		</contour>
	</outline>
</glyph>
<glyph name="phinthu-thai" format="2">
	<advance width="0"/>
	<unicode hex="0E3A"/>
	<anchor x="-90" y="0" name="_bottom"/>
	<anchor x="-90" y="-198" name="bottom"/>
	<note>
		phinthu-thai
	</note>
	<outline>
		<contour>
			<point x="-116" y="-175" type="curve" smooth="yes"/>
			<point x="-89" y="-175"/>
			<point x="-64" y="-156"/>
			<point x="-64" y="-124" type="curve" smooth="yes"/>
			<point x="-64" y="-92"/>
			<point x="-89" y="-72"/>
			<point x="-116" y="-72" type="curve" smooth="yes"/>
			<point x="-143" y="-72"/>
			<point x="-167" y="-92"/>
			<point x="-167" y="-124" type="curve" smooth="yes"/>
			<point x="-167" y="-156"/>
			<point x="-143" y="-175"/>
		</contour>
	</outline>
</glyph>
<glyph name="maiEk-thai" format="2">
	<advance width="0"/>
	<unicode hex="0E48"/>
	<anchor x="-90" y="558" name="top"/>
	<anchor x="-90" y="300" name="_top"/>
	<note>
		maiEk-thai
	</note>
	<outline>
		<contour>
			<point x="-113" y="636" type="curve" smooth="yes"/>
			<point x="-99" y="636"/>
			<point x="-90" y="644"/>
			<point x="-90" y="655" type="curve" smooth="yes"/>
			<point x="-90" y="774" type="line" smooth="yes"/>
			<point x="-90" y="791"/>
			<point x="-101" y="800"/>
			<point x="-119" y="800" type="curve" smooth="yes"/>
			<point x="-133" y="800"/>
			<point x="-142" y="792"/>
			<point x="-142" y="781" type="curve" smooth="yes"/>
			<point x="-142" y="662" type="line" smooth="yes"/>
			<point x="-142" y="646"/>
			<point x="-131" y="636"/>
		</contour>
	</outline>
</glyph>
<glyph name="maiChattawa-thai" format="2">
	<advance width="0"/>
	<unicode hex="0E4B"/>
	<anchor x="-120" y="558" name="top"/>
	<anchor x="-90" y="300" name="_top"/>
	<note>
		maiChattawa-thai
	</note>
	<outline>
		<contour>
			<point x="-146" y="636" type="curve" smooth="yes"/>
			<point x="-132" y="636"/>
			<point x="-125" y="645"/>
			<point x="-126" y="658" type="curve" smooth="yes"/>
			<point x="-129" y="717" type="line"/>
			<point x="-78" y="714" type="line" smooth="yes"/>
			<point x="-58" y="713"/>
			<point x="-47" y="718"/>
			<point x="-47" y="736" type="curve" smooth="yes"/>
			<point x="-47" y="751"/>
			<point x="-55" y="756"/>
			<point x="-71" y="755" type="curve" smooth="yes"/>
			<point x="-129" y="752" type="line"/>
			<point x="-127" y="801" type="line" smooth="yes"/>
			<point x="-126" y="821"/>
			<point x="-132" y="833"/>
			<point x="-151" y="833" type="curve" smooth="yes"/>
			<point x="-165" y="833"/>
			<point x="-172" y="824"/>
			<point x="-171" y="811" type="curve" smooth="yes"/>
			<point x="-168" y="752" type="line"/>
			<point x="-220" y="755" type="line" smooth="yes"/>
			<point x="-239" y="756"/>
			<point x="-250" y="751"/>
			<point x="-250" y="732" type="curve" smooth="yes"/>
			<point x="-250" y="717"/>
			<point x="-242" y="713"/>
			<point x="-226" y="714" type="curve" smooth="yes"/>
			<point x="-168" y="717" type="line"/>
			<point x="-170" y="667" type="line" smooth="yes"/>
			<point x="-171" y="648"/>
			<point x="-165" y="636"/>
		</contour>
	</outline>
</glyph>
<glyph name="thanthakhat-thai" format="2">
	<advance width="0"/>
	<unicode hex="0E4C"/>
	<anchor x="-100" y="558" name="top"/>
	<anchor x="-90" y="300" name="_top"/>
	<note>
		thanthakhat-thai
	</note>
	<outline>
		<contour>
			<point x="-197" y="636" type="curve" smooth="yes"/>
			<point x="-161" y="636"/>
			<point x="-133" y="660"/>
			<point x="-133" y="696" type="curve" smooth="yes"/>
			<point x="-133" y="706"/>
			<point x="-136" y="715"/>
			<point x="-141" y="724" type="curve"/>
			<point x="-139" y="726" type="line"/>
			<point x="-134" y="724"/>
			<point x="-127" y="722"/>
			<point x="-121" y="722" type="curve" smooth="yes"/>
			<point x="-31" y="722" type="line" smooth="yes"/>
			<point x="-16" y="722"/>
			<point x="-9" y="731"/>
			<point x="-9" y="746" type="curve" smooth="yes"/>
			<point x="-9" y="759"/>
			<point x="-16" y="765"/>
			<point x="-25" y="765" type="curve" smooth="yes"/>
			<point x="-194" y="765" type="line" smooth="yes"/>
			<point x="-233" y="765"/>
			<point x="-263" y="739"/>
			<point x="-263" y="700" type="curve" smooth="yes"/>
			<point x="-263" y="661"/>
			<point x="-234" y="636"/>
		</contour>
		<contour>
			<point x="-197" y="661" type="curve" smooth="yes"/>
			<point x="-217" y="661"/>
			<point x="-233" y="676"/>
			<point x="-233" y="699" type="curve" smooth="yes"/>
			<point x="-233" y="722"/>
			<point x="-217" y="736"/>
			<point x="-197" y="736" type="curve" smooth="yes"/>
			<point x="-176" y="736"/>
			<point x="-161" y="722"/>
			<point x="-161" y="699" type="curve" smooth="yes"/>
			<point x="-161" y="676"/>
			<point x="-176" y="661"/>
		</contour>
	</outline>
</glyph>
<glyph name="nikhahit-thai" format="2">
	<advance width="0"/>
	<unicode hex="0E4D"/>
	<anchor x="-90" y="501" name="top"/>
	<anchor x="-90" y="300" name="_top"/>
	<note>
		nikhahit-thai
	</note>
	<outline>
		<contour>
			<point x="-118" y="626" type="curve" smooth="yes"/>
			<point x="-67" y="626"/>
			<point x="-27" y="659"/>
			<point x="-27" y="713" type="curve" smooth="yes"/>
			<point x="-27" y="768"/>
			<point x="-67" y="801"/>
			<point x="-118" y="801" type="curve" smooth="yes"/>
			<point x="-170" y="801"/>
			<point x="-209" y="768"/>
			<point x="-209" y="713" type="curve" smooth="yes"/>
			<point x="-209" y="659"/>
			<point x="-170" y="626"/>
		</contour>
		<contour>
			<point x="-118" y="658" type="curve" smooth="yes"/>
			<point x="-148" y="658"/>
			<point x="-171" y="677"/>
			<point x="-171" y="713" type="curve" smooth="yes"/>
			<point x="-171" y="750"/>
			<point x="-148" y="769"/>
			<point x="-118" y="769" type="curve" smooth="yes"/>
			<point x="-89" y="769"/>
			<point x="-65" y="750"/>
			<point x="-65" y="713" type="curve" smooth="yes"/>
			<point x="-65" y="678"/>
			<point x="-89" y="658"/>
		</contour>
	</outline>
</glyph>
<glyph name="Ocircumflextilde" format="2">
	<advance width="729"/>
	<unicode hex="1ED6"/>
	<note>
		Ocircumflextilde
	</note>
	<outline>
		<contour>
			<point x="364" y="-11" type="curve" smooth="yes"/>
			<point x="552" y="-11"/>
			<point x="676" y="108"/>
			<point x="676" y="346" type="curve" smooth="yes"/>
			<point x="676" y="585"/>
			<point x="552" y="706"/>
			<point x="364" y="706" type="curve" smooth="yes"/>
			<point x="176" y="706"/>
			<point x="53" y="585"/>
			<point x="53" y="346" type="curve" smooth="yes"/>
			<point x="53" y="108"/>
			<point x="176" y="-11"/>
		</contour>
		<contour>
			<point x="364" y="32" type="curve" smooth="yes"/>
			<point x="203" y="32"/>
			<point x="114" y="148"/>
			<point x="114" y="346" type="curve" smooth="yes"/>
			<point x="114" y="545"/>
			<point x="203" y="663"/>
			<point x="364" y="663" type="curve" smooth="yes"/>
			<point x="525" y="663"/>
			<point x="614" y="545"/>
			<point x="614" y="346" type="curve" smooth="yes"/>
			<point x="614" y="148"/>
			<point x="525" y="32"/>
		</contour>
		<contour>
			<point x="277" y="750" type="line"/>
			<point x="366" y="846" type="line"/>
			<point x="455" y="750" type="line"/>
			<point x="485" y="773" type="line"/>
			<point x="384" y="901" type="line"/>
			<point x="349" y="901" type="line"/>
			<point x="247" y="773" type="line"/>
		</contour>
		<contour>
			<point x="409" y="932" type="curve" smooth="yes"/>
			<point x="432" y="932"/>
			<point x="456" y="946"/>
			<point x="476" y="964" type="curve"/>
			<point x="458" y="994" type="line"/>
			<point x="443" y="982"/>
			<point x="427" y="973"/>
			<point x="408" y="973" type="curve" smooth="yes"/>
			<point x="384" y="973"/>
			<point x="355" y="999"/>
			<point x="327" y="999" type="curve" smooth="yes"/>
			<point x="305" y="999"/>
			<point x="279" y="984"/>
			<point x="260" y="967" type="curve"/>
			<point x="277" y="936" type="line"/>
			<point x="292" y="948"/>
			<point x="308" y="958"/>
			<point x="327" y="958" type="curve" smooth="yes"/>
			<point x="356" y="958"/>
			<point x="378" y="932"/>
		</contour>
	</outline>
</glyph>
<glyph name="ocircumflextilde" format="2">
	<advance width="535"/>
	<unicode hex="1ED7"/>
	<note>
		ocircumflextilde
	</note>
	<outline>
		<contour>
			<point x="268" y="-11" type="curve" smooth="yes"/>
			<point x="411" y="-11"/>
			<point x="492" y="89"/>
			<point x="492" y="244" type="curve" smooth="yes"/>
			<point x="492" y="398"/>
			<point x="411" y="498"/>
			<point x="268" y="498" type="curve" smooth="yes"/>
			<point x="124" y="498"/>
			<point x="43" y="398"/>
			<point x="43" y="244" type="curve" smooth="yes"/>
			<point x="43" y="89"/>
			<point x="124" y="-11"/>
		</contour>
		<contour>
			<point x="268" y="28" type="curve" smooth="yes"/>
			<point x="164" y="28"/>
			<point x="100" y="107"/>
			<point x="100" y="244" type="curve" smooth="yes"/>
			<point x="100" y="380"/>
			<point x="164" y="459"/>
			<point x="268" y="459" type="curve" smooth="yes"/>
			<point x="371" y="459"/>
			<point x="435" y="380"/>
			<point x="435" y="244" type="curve" smooth="yes"/>
			<point x="435" y="107"/>
			<point x="371" y="28"/>
		</contour>
		<contour>
			<point x="180" y="558" type="line"/>
			<point x="269" y="654" type="line"/>
			<point x="358" y="558" type="line"/>
			<point x="388" y="581" type="line"/>
			<point x="287" y="709" type="line"/>
			<point x="252" y="709" type="line"/>
			<point x="150" y="581" type="line"/>
		</contour>
		<contour>
			<point x="312" y="740" type="curve" smooth="yes"/>
			<point x="335" y="740"/>
			<point x="359" y="754"/>
			<point x="379" y="772" type="curve"/>
			<point x="361" y="802" type="line"/>
			<point x="346" y="790"/>
			<point x="330" y="781"/>
			<point x="311" y="781" type="curve" smooth="yes"/>
			<point x="287" y="781"/>
			<point x="258" y="807"/>
			<point x="230" y="807" type="curve" smooth="yes"/>
			<point x="208" y="807"/>
			<point x="182" y="792"/>
			<point x="163" y="775" type="curve"/>
			<point x="180" y="744" type="line"/>
			<point x="195" y="756"/>
			<point x="211" y="766"/>
			<point x="230" y="766" type="curve" smooth="yes"/>
			<point x="259" y="766"/>
			<point x="281" y="740"/>
		</contour>
	</outline>
</glyph>
<glyph name="figuredash" format="2">
	<advance width="549"/>
	<unicode hex="2012"/>
	<note>
		figuredash
	</note>
	<outline>
		<contour>
			<point x="36" y="291" type="line"/>
			<point x="513" y="291" type="line"/>
			<point x="513" y="338" type="line"/>
			<point x="36" y="338" type="line"/>
		</contour>
	</outline>
</glyph>
<glyph name="endash" format="2">
	<advance width="509"/>
	<unicode hex="2013"/>
	<note>
		endash
	</note>
	<outline>
		<contour>
			<point x="16" y="291" type="line"/>
			<point x="493" y="291" type="line"/>
			<point x="493" y="338" type="line"/>
			<point x="16" y="338" type="line"/>
		</contour>
	</outline>
</glyph>
<glyph name="zerosuperior" format="2">
	<advance width="381"/>
	<unicode hex="2070"/>
	<note>
		zero.superior
	</note>
	<outline>
		<contour>
			<point x="190" y="382" type="curve" smooth="yes"/>
			<point x="288" y="382"/>
			<point x="350" y="462"/>
			<point x="350" y="576" type="curve" smooth="yes"/>
			<point x="350" y="689"/>
			<point x="288" y="769"/>
			<point x="190" y="769" type="curve" smooth="yes"/>
			<point x="93" y="769"/>
			<point x="31" y="689"/>
			<point x="31" y="576" type="curve" smooth="yes"/>
			<point x="31" y="462"/>
			<point x="93" y="382"/>
		</contour>
		<contour>
			<point x="190" y="415" type="curve" smooth="yes"/>
			<point x="119" y="415"/>
			<point x="73" y="481"/>
			<point x="73" y="576" type="curve" smooth="yes"/>
			<point x="73" y="669"/>
			<point x="119" y="736"/>
			<point x="190" y="736" type="curve" smooth="yes"/>
			<point x="262" y="736"/>
			<point x="308" y="669"/>
			<point x="308" y="576" type="curve" smooth="yes"/>
			<point x="308" y="481"/>
			<point x="262" y="415"/>
		</contour>
	</outline>
</glyph>
<glyph name="lozenge" format="2">
	<advance width="543"/>
	<unicode hex="25CA"/>
	<note>
		lozenge
	</note>
	<outline>
		<contour>
			<point x="244" y="0" type="line"/>
			<point x="299" y="0" type="line"/>
			<point x="497" y="347" type="line"/>
			<point x="299" y="695" type="line"/>
			<point x="244" y="695" type="line"/>
			<point x="46" y="347" type="line"/>
		</contour>
		<contour>
			<point x="279" y="51" type="line"/>
			<point x="104" y="360" type="line"/>
			<point x="264" y="644" type="line"/>
			<point x="439" y="335" type="line"/>
		</contour>
	</outline>
</glyph>
<glyph name="maiEk-thai.small" format="2">
	<advance width="0"/>
	<anchor x="-90" y="713" name="top"/>
	<anchor x="-90" y="512" name="_top"/>
	<note>
		maiEk-thai.small
	</note>
	<outline>
		<contour>
			<point x="-104" y="870" type="curve" smooth="yes"/>
			<point x="-89" y="870"/>
			<point x="-83" y="878"/>
			<point x="-83" y="889" type="curve" smooth="yes"/>
			<point x="-83" y="1006" type="line" smooth="yes"/>
			<point x="-83" y="1022"/>
			<point x="-91" y="1032"/>
			<point x="-109" y="1032" type="curve" smooth="yes"/>
			<point x="-123" y="1032"/>
			<point x="-130" y="1024"/>
			<point x="-130" y="1013" type="curve" smooth="yes"/>
			<point x="-130" y="896" type="line" smooth="yes"/>
			<point x="-130" y="880"/>
			<point x="-121" y="870"/>
		</contour>
	</outline>
</glyph>
<glyph name="nikhahit-thai.narrow" format="2">
	<advance width="0"/>
	<anchor x="-308" y="500" name="top"/>
	<anchor x="-210" y="300" name="_top"/>
	<note>
		nikhahit-thai.narrow
	</note>
	<outline>
		<contour>
			<point x="-330" y="617" type="curve" smooth="yes"/>
			<point x="-280" y="617"/>
			<point x="-240" y="650"/>
			<point x="-240" y="704" type="curve" smooth="yes"/>
			<point x="-240" y="759"/>
			<point x="-280" y="792"/>
			<point x="-330" y="792" type="curve" smooth="yes"/>
			<point x="-382" y="792"/>
			<point x="-422" y="759"/>
			<point x="-422" y="704" type="curve" smooth="yes"/>
			<point x="-422" y="650"/>
			<point x="-382" y="617"/>
		</contour>
		<contour>
			<point x="-330" y="649" type="curve" smooth="yes"/>
			<point x="-361" y="649"/>
			<point x="-384" y="668"/>
			<point x="-384" y="704" type="curve" smooth="yes"/>
			<point x="-384" y="741"/>
			<point x="-361" y="760"/>
			<point x="-330" y="760" type="curve" smooth="yes"/>
			<point x="-301" y="760"/>
			<point x="-278" y="741"/>
			<point x="-278" y="704" type="curve" smooth="yes"/>
			<point x="-278" y="669"/>
			<point x="-301" y="649"/>
		</contour>
	</outline>
</glyph>
<glyph name="nikhahit_maiChattawa-thai" format="2">
	<advance width="0"/>
	<anchor x="-90" y="501" name="top"/>
	<anchor x="-90" y="300" name="_top"/>
	<outline>
		<contour>
			<point x="-118" y="626" type="curve" smooth="yes"/>
			<point x="-67" y="626"/>
			<point x="-27" y="659"/>
			<point x="-27" y="713" type="curve" smooth="yes"/>
			<point x="-27" y="768"/>
			<point x="-67" y="801"/>
			<point x="-118" y="801" type="curve" smooth="yes"/>
			<point x="-170" y="801"/>
			<point x="-209" y="768"/>
			<point x="-209" y="713" type="curve" smooth="yes"/>
			<point x="-209" y="659"/>
			<point x="-170" y="626"/>
		</contour>
		<contour>
			<point x="-118" y="658" type="curve" smooth="yes"/>
			<point x="-148" y="658"/>
			<point x="-171" y="677"/>
			<point x="-171" y="713" type="curve" smooth="yes"/>
			<point x="-171" y="750"/>
			<point x="-148" y="769"/>
			<point x="-118" y="769" type="curve" smooth="yes"/>
			<point x="-89" y="769"/>
			<point x="-65" y="750"/>
			<point x="-65" y="713" type="curve" smooth="yes"/>
			<point x="-65" y="678"/>
			<point x="-89" y="658"/>
		</contour>
		<contour>
			<point x="-105" y="870" type="curve" smooth="yes"/>
			<point x="-91" y="870"/>
			<point x="-83" y="879"/>
			<point x="-84" y="891" type="curve" smooth="yes"/>
			<point x="-88" y="948" type="line"/>
			<point x="-38" y="945" type="line" smooth="yes"/>
			<point x="-19" y="944"/>
			<point x="-8" y="949"/>
			<point x="-8" y="967" type="curve" smooth="yes"/>
			<point x="-8" y="982"/>
			<point x="-16" y="986"/>
			<point x="-32" y="985" type="curve" smooth="yes"/>
			<point x="-88" y="982" type="line"/>
			<point x="-85" y="1030" type="line" smooth="yes"/>
			<point x="-84" y="1048"/>
			<point x="-91" y="1060"/>
			<point x="-109" y="1060" type="curve" smooth="yes"/>
			<point x="-123" y="1060"/>
			<point x="-130" y="1051"/>
			<point x="-129" y="1039" type="curve" smooth="yes"/>
			<point x="-126" y="982" type="line"/>
			<point x="-176" y="985" type="line" smooth="yes"/>
			<point x="-194" y="986"/>
			<point x="-205" y="982"/>
			<point x="-205" y="963" type="curve" smooth="yes"/>
			<point x="-205" y="948"/>
			<point x="-196" y="944"/>
			<point x="-182" y="945" type="curve" smooth="yes"/>
			<point x="-126" y="948" type="line"/>
			<point x="-128" y="900" type="line" smooth="yes"/>
			<point x="-129" y="882"/>
			<point x="-123" y="870"/>
		</contour>
	</outline>
</glyph>
<glyph name="nikhahit_maiChattawa-thai.narrow" format="2">
	<advance width="0"/>
	<anchor x="-308" y="500" name="top"/>
	<anchor x="-210" y="300" name="_top"/>
	<outline>
		<contour>
			<point x="-330" y="617" type="curve" smooth="yes"/>
			<point x="-280" y="617"/>
			<point x="-240" y="650"/>
			<point x="-240" y="704" type="curve" smooth="yes"/>
			<point x="-240" y="759"/>
			<point x="-280" y="792"/>
			<point x="-330" y="792" type="curve" smooth="yes"/>
			<point x="-382" y="792"/>
			<point x="-422" y="759"/>
			<point x="-422" y="704" type="curve" smooth="yes"/>
			<point x="-422" y="650"/>
			<point x="-382" y="617"/>
		</contour>
		<contour>
			<point x="-330" y="649" type="curve" smooth="yes"/>
			<point x="-361" y="649"/>
			<point x="-384" y="668"/>
			<point x="-384" y="704" type="curve" smooth="yes"/>
			<point x="-384" y="741"/>
			<point x="-361" y="760"/>
			<point x="-330" y="760" type="curve" smooth="yes"/>
			<point x="-301" y="760"/>
			<point x="-278" y="741"/>
			<point x="-278" y="704" type="curve" smooth="yes"/>
			<point x="-278" y="669"/>
			<point x="-301" y="649"/>
		</contour>
		<contour>
			<point x="-317" y="870" type="curve" smooth="yes"/>
			<point x="-303" y="870"/>
			<point x="-295" y="879"/>
			<point x="-296" y="891" type="curve" smooth="yes"/>
			<point x="-300" y="948" type="line"/>
			<point x="-250" y="945" type="line" smooth="yes"/>
			<point x="-231" y="944"/>
			<point x="-220" y="949"/>
			<point x="-220" y="967" type="curve" smooth="yes"/>
			<point x="-220" y="982"/>
			<point x="-228" y="986"/>
			<point x="-244" y="985" type="curve" smooth="yes"/>
			<point x="-300" y="982" type="line"/>
			<point x="-297" y="1030" type="line" smooth="yes"/>
			<point x="-296" y="1048"/>
			<point x="-303" y="1060"/>
			<point x="-321" y="1060" type="curve" smooth="yes"/>
			<point x="-335" y="1060"/>
			<point x="-342" y="1051"/>
			<point x="-341" y="1039" type="curve" smooth="yes"/>
			<point x="-338" y="982" type="line"/>
			<point x="-388" y="985" type="line" smooth="yes"/>
			<point x="-406" y="986"/>
			<point x="-417" y="982"/>
			<point x="-417" y="963" type="curve" smooth="yes"/>
			<point x="-417" y="948"/>
			<point x="-408" y="944"/>
			<point x="-394" y="945" type="curve" smooth="yes"/>
			<point x="-338" y="948" type="line"/>
			<point x="-340" y="900" type="line" smooth="yes"/>
			<point x="-341" y="882"/>
			<point x="-335" y="870"/>
		</contour>
	</outline>
</glyph>
<glyph name="nikhahit_maiEk-thai" format="2">
	<advance width="0"/>
	<anchor x="-90" y="501" name="top"/>
	<anchor x="-90" y="300" name="_top"/>
	<outline>
		<contour>
			<point x="-118" y="626" type="curve" smooth="yes"/>
			<point x="-67" y="626"/>
			<point x="-27" y="659"/>
			<point x="-27" y="713" type="curve" smooth="yes"/>
			<point x="-27" y="768"/>
			<point x="-67" y="801"/>
			<point x="-118" y="801" type="curve" smooth="yes"/>
			<point x="-170" y="801"/>
			<point x="-209" y="768"/>
			<point x="-209" y="713" type="curve" smooth="yes"/>
			<point x="-209" y="659"/>
			<point x="-170" y="626"/>
		</contour>
		<contour>
			<point x="-118" y="658" type="curve" smooth="yes"/>
			<point x="-148" y="658"/>
			<point x="-171" y="677"/>
			<point x="-171" y="713" type="curve" smooth="yes"/>
			<point x="-171" y="750"/>
			<point x="-148" y="769"/>
			<point x="-118" y="769" type="curve" smooth="yes"/>
			<point x="-89" y="769"/>
			<point x="-65" y="750"/>
			<point x="-65" y="713" type="curve" smooth="yes"/>
			<point x="-65" y="678"/>
			<point x="-89" y="658"/>
		</contour>
		<contour>
			<point x="-104" y="870" type="curve" smooth="yes"/>
			<point x="-89" y="870"/>
			<point x="-83" y="878"/>
			<point x="-83" y="889" type="curve" smooth="yes"/>
			<point x="-83" y="1006" type="line" smooth="yes"/>
			<point x="-83" y="1022"/>
			<point x="-91" y="1032"/>
			<point x="-109" y="1032" type="curve" smooth="yes"/>
			<point x="-123" y="1032"/>
			<point x="-130" y="1024"/>
			<point x="-130" y="1013" type="curve" smooth="yes"/>
			<point x="-130" y="896" type="line" smooth="yes"/>
			<point x="-130" y="880"/>
			<point x="-121" y="870"/>
		</contour>
	</outline>
</glyph>
<glyph name="nikhahit_maiEk-thai.narrow" format="2">
	<advance width="0"/>
	<anchor x="-308" y="500" name="top"/>
	<anchor x="-210" y="300" name="_top"/>
	<outline>
		<contour>
			<point x="-330" y="617" type="curve" smooth="yes"/>
			<point x="-280" y="617"/>
			<point x="-240" y="650"/>
			<point x="-240" y="704" type="curve" smooth="yes"/>
			<point x="-240" y="759"/>
			<point x="-280" y="792"/>
			<point x="-330" y="792" type="curve" smooth="yes"/>
			<point x="-382" y="792"/>
			<point x="-422" y="759"/>
			<point x="-422" y="704" type="curve" smooth="yes"/>
			<point x="-422" y="650"/>
			<point x="-382" y="617"/>
		</contour>
		<contour>
			<point x="-330" y="649" type="curve" smooth="yes"/>
			<point x="-361" y="649"/>
			<point x="-384" y="668"/>
			<point x="-384" y="704" type="curve" smooth="yes"/>
			<point x="-384" y="741"/>
			<point x="-361" y="760"/>
			<point x="-330" y="760" type="curve" smooth="yes"/>
			<point x="-301" y="760"/>
			<point x="-278" y="741"/>
			<point x="-278" y="704" type="curve" smooth="yes"/>
			<point x="-278" y="669"/>
			<point x="-301" y="649"/>
		</contour>
		<contour>
			<point x="-319" y="870" type="curve" smooth="yes"/>
			<point x="-304" y="870"/>
			<point x="-298" y="878"/>
			<point x="-298" y="889" type="curve" smooth="yes"/>
			<point x="-298" y="1006" type="line" smooth="yes"/>
			<point x="-298" y="1022"/>
			<point x="-306" y="1032"/>
			<point x="-324" y="1032" type="curve" smooth="yes"/>
			<point x="-338" y="1032"/>
			<point x="-345" y="1024"/>
			<point x="-345" y="1013" type="curve" smooth="yes"/>
			<point x="-345" y="896" type="line" smooth="yes"/>
			<point x="-345" y="880"/>
			<point x="-336" y="870"/>
		</contour>
	</outline>
</glyph>
<glyph name="nikhahit_maiTho-thai" format="2">
	<advance width="0"/>
	<anchor x="-90" y="501" name="top"/>
	<anchor x="-90" y="300" name="_top"/>
	<outline>
		<contour>
			<point x="-118" y="626" type="curve" smooth="yes"/>
			<point x="-67" y="626"/>
			<point x="-27" y="659"/>
			<point x="-27" y="713" type="curve" smooth="yes"/>
			<point x="-27" y="768"/>
			<point x="-67" y="801"/>
			<point x="-118" y="801" type="curve" smooth="yes"/>
			<point x="-170" y="801"/>
			<point x="-209" y="768"/>
			<point x="-209" y="713" type="curve" smooth="yes"/>
			<point x="-209" y="659"/>
			<point x="-170" y="626"/>
		</contour>
		<contour>
			<point x="-118" y="658" type="curve" smooth="yes"/>
			<point x="-148" y="658"/>
			<point x="-171" y="677"/>
			<point x="-171" y="713" type="curve" smooth="yes"/>
			<point x="-171" y="750"/>
			<point x="-148" y="769"/>
			<point x="-118" y="769" type="curve" smooth="yes"/>
			<point x="-89" y="769"/>
			<point x="-65" y="750"/>
			<point x="-65" y="713" type="curve" smooth="yes"/>
			<point x="-65" y="678"/>
			<point x="-89" y="658"/>
		</contour>
		<contour>
			<point x="-221" y="870" type="curve" smooth="yes"/>
			<point x="-108" y="872"/>
			<point x="-31" y="908"/>
			<point x="9" y="999" type="curve" smooth="yes"/>
			<point x="13" y="1009"/>
			<point x="18" y="1021"/>
			<point x="18" y="1030" type="curve" smooth="yes"/>
			<point x="18" y="1042"/>
			<point x="11" y="1052"/>
			<point x="-7" y="1052" type="curve" smooth="yes"/>
			<point x="-16" y="1052"/>
			<point x="-20" y="1046"/>
			<point x="-22" y="1039" type="curve" smooth="yes"/>
			<point x="-45" y="960"/>
			<point x="-94" y="915"/>
			<point x="-184" y="904" type="curve"/>
			<point x="-153" y="928"/>
			<point x="-138" y="956"/>
			<point x="-138" y="994" type="curve" smooth="yes"/>
			<point x="-138" y="1031"/>
			<point x="-162" y="1060"/>
			<point x="-201" y="1060" type="curve" smooth="yes"/>
			<point x="-236" y="1060"/>
			<point x="-261" y="1035"/>
			<point x="-261" y="1003" type="curve" smooth="yes"/>
			<point x="-261" y="970"/>
			<point x="-235" y="949"/>
			<point x="-206" y="949" type="curve" smooth="yes"/>
			<point x="-195" y="949"/>
			<point x="-186" y="952"/>
			<point x="-179" y="957" type="curve"/>
			<point x="-177" y="955" type="line"/>
			<point x="-186" y="933"/>
			<point x="-208" y="915"/>
			<point x="-233" y="905" type="curve"/>
			<point x="-233" y="880" type="line" smooth="yes"/>
			<point x="-233" y="872"/>
			<point x="-228" y="870"/>
		</contour>
		<contour>
			<point x="-202" y="971" type="curve" smooth="yes"/>
			<point x="-220" y="971"/>
			<point x="-233" y="984"/>
			<point x="-233" y="1004" type="curve" smooth="yes"/>
			<point x="-233" y="1025"/>
			<point x="-220" y="1037"/>
			<point x="-202" y="1037" type="curve" smooth="yes"/>
			<point x="-183" y="1037"/>
			<point x="-170" y="1025"/>
			<point x="-170" y="1004" type="curve" smooth="yes"/>
			<point x="-170" y="983"/>
			<point x="-183" y="971"/>
		</contour>
	</outline>
</glyph>
<glyph name="nikhahit_maiTho-thai.narrow" format="2">
	<advance width="0"/>
	<anchor x="-308" y="500" name="top"/>
	<anchor x="-210" y="300" name="_top"/>
	<outline>
		<contour>
			<point x="-330" y="617" type="curve" smooth="yes"/>
			<point x="-280" y="617"/>
			<point x="-240" y="650"/>
			<point x="-240" y="704" type="curve" smooth="yes"/>
			<point x="-240" y="759"/>
			<point x="-280" y="792"/>
			<point x="-330" y="792" type="curve" smooth="yes"/>
			<point x="-382" y="792"/>
			<point x="-422" y="759"/>
			<point x="-422" y="704" type="curve" smooth="yes"/>
			<point x="-422" y="650"/>
			<point x="-382" y="617"/>
		</contour>
		<contour>
			<point x="-330" y="649" type="curve" smooth="yes"/>
			<point x="-361" y="649"/>
			<point x="-384" y="668"/>
			<point x="-384" y="704" type="curve" smooth="yes"/>
			<point x="-384" y="741"/>
			<point x="-361" y="760"/>
			<point x="-330" y="760" type="curve" smooth="yes"/>
			<point x="-301" y="760"/>
			<point x="-278" y="741"/>
			<point x="-278" y="704" type="curve" smooth="yes"/>
			<point x="-278" y="669"/>
			<point x="-301" y="649"/>
		</contour>
		<contour>
			<point x="-421" y="870" type="curve" smooth="yes"/>
			<point x="-308" y="872"/>
			<point x="-231" y="908"/>
			<point x="-191" y="999" type="curve" smooth="yes"/>
			<point x="-187" y="1009"/>
			<point x="-182" y="1021"/>
			<point x="-182" y="1030" type="curve" smooth="yes"/>
			<point x="-182" y="1042"/>
			<point x="-189" y="1052"/>
			<point x="-207" y="1052" type="curve" smooth="yes"/>
			<point x="-216" y="1052"/>
			<point x="-220" y="1046"/>
			<point x="-222" y="1039" type="curve" smooth="yes"/>
			<point x="-245" y="960"/>
			<point x="-294" y="915"/>
			<point x="-384" y="904" type="curve"/>
			<point x="-353" y="928"/>
			<point x="-338" y="956"/>
			<point x="-338" y="994" type="curve" smooth="yes"/>
			<point x="-338" y="1031"/>
			<point x="-362" y="1060"/>
			<point x="-401" y="1060" type="curve" smooth="yes"/>
			<point x="-436" y="1060"/>
			<point x="-461" y="1035"/>
			<point x="-461" y="1003" type="curve" smooth="yes"/>
			<point x="-461" y="970"/>
			<point x="-435" y="949"/>
			<point x="-406" y="949" type="curve" smooth="yes"/>
			<point x="-395" y="949"/>
			<point x="-386" y="952"/>
			<point x="-379" y="957" type="curve"/>
			<point x="-377" y="955" type="line"/>
			<point x="-386" y="933"/>
			<point x="-408" y="915"/>
			<point x="-433" y="905" type="curve"/>
			<point x="-433" y="880" type="line" smooth="yes"/>
			<point x="-433" y="872"/>
			<point x="-428" y="870"/>
		</contour>
		<contour>
			<point x="-402" y="971" type="curve" smooth="yes"/>
			<point x="-420" y="971"/>
			<point x="-433" y="984"/>
			<point x="-433" y="1004" type="curve" smooth="yes"/>
			<point x="-433" y="1025"/>
			<point x="-420" y="1037"/>
			<point x="-402" y="1037" type="curve" smooth="yes"/>
			<point x="-383" y="1037"/>
			<point x="-370" y="1025"/>
			<point x="-370" y="1004" type="curve" smooth="yes"/>
			<point x="-370" y="983"/>
			<point x="-383" y="971"/>
		</contour>
	</outline>
</glyph>
<glyph name="nikhahit_maiTri-thai" format="2">
	<advance width="0"/>
	<anchor x="-90" y="501" name="top"/>
	<anchor x="-90" y="300" name="_top"/>
	<outline>
		<contour>
			<point x="-118" y="626" type="curve" smooth="yes"/>
			<point x="-67" y="626"/>
			<point x="-27" y="659"/>
			<point x="-27" y="713" type="curve" smooth="yes"/>
			<point x="-27" y="768"/>
			<point x="-67" y="801"/>
			<point x="-118" y="801" type="curve" smooth="yes"/>
			<point x="-170" y="801"/>
			<point x="-209" y="768"/>
			<point x="-209" y="713" type="curve" smooth="yes"/>
			<point x="-209" y="659"/>
			<point x="-170" y="626"/>
		</contour>
		<contour>
			<point x="-118" y="658" type="curve" smooth="yes"/>
			<point x="-148" y="658"/>
			<point x="-171" y="677"/>
			<point x="-171" y="713" type="curve" smooth="yes"/>
			<point x="-171" y="750"/>
			<point x="-148" y="769"/>
			<point x="-118" y="769" type="curve" smooth="yes"/>
			<point x="-89" y="769"/>
			<point x="-65" y="750"/>
			<point x="-65" y="713" type="curve" smooth="yes"/>
			<point x="-65" y="678"/>
			<point x="-89" y="658"/>
		</contour>
		<contour>
			<point x="-228" y="860" type="curve" smooth="yes"/>
			<point x="-196" y="860"/>
			<point x="-170" y="882"/>
			<point x="-170" y="915" type="curve" smooth="yes"/>
			<point x="-170" y="948"/>
			<point x="-194" y="967"/>
			<point x="-223" y="967" type="curve" smooth="yes"/>
			<point x="-233" y="967"/>
			<point x="-243" y="964"/>
			<point x="-251" y="957" type="curve"/>
			<point x="-253" y="959" type="line"/>
			<point x="-253" y="986"/>
			<point x="-241" y="1012"/>
			<point x="-213" y="1012" type="curve" smooth="yes"/>
			<point x="-185" y="1012"/>
			<point x="-175" y="989"/>
			<point x="-174" y="976" type="curve"/>
			<point x="-150" y="976" type="line"/>
			<point x="-150" y="990"/>
			<point x="-139" y="1012"/>
			<point x="-118" y="1012" type="curve" smooth="yes"/>
			<point x="-95" y="1012"/>
			<point x="-88" y="995"/>
			<point x="-88" y="970" type="curve" smooth="yes"/>
			<point x="-88" y="880" type="line" smooth="yes"/>
			<point x="-88" y="873"/>
			<point x="-85" y="868"/>
			<point x="-76" y="868" type="curve" smooth="yes"/>
			<point x="-31" y="868" type="line" smooth="yes"/>
			<point x="12" y="868"/>
			<point x="36" y="884"/>
			<point x="36" y="934" type="curve" smooth="yes"/>
			<point x="36" y="1035" type="line" smooth="yes"/>
			<point x="36" y="1051"/>
			<point x="29" y="1058"/>
			<point x="16" y="1058" type="curve" smooth="yes"/>
			<point x="5" y="1058"/>
			<point x="-1" y="1051"/>
			<point x="-1" y="1041" type="curve" smooth="yes"/>
			<point x="-1" y="932" type="line" smooth="yes"/>
			<point x="-1" y="903"/>
			<point x="-12" y="894"/>
			<point x="-36" y="894" type="curve" smooth="yes"/>
			<point x="-51" y="894" type="line"/>
			<point x="-51" y="974" type="line" smooth="yes"/>
			<point x="-51" y="1016"/>
			<point x="-69" y="1042"/>
			<point x="-111" y="1042" type="curve" smooth="yes"/>
			<point x="-135" y="1042"/>
			<point x="-156" y="1028"/>
			<point x="-162" y="1009" type="curve"/>
			<point x="-168" y="1027"/>
			<point x="-188" y="1042"/>
			<point x="-217" y="1042" type="curve" smooth="yes"/>
			<point x="-263" y="1042"/>
			<point x="-291" y="1005"/>
			<point x="-291" y="943" type="curve" smooth="yes"/>
			<point x="-291" y="885"/>
			<point x="-261" y="860"/>
		</contour>
		<contour>
			<point x="-227" y="882" type="curve" smooth="yes"/>
			<point x="-244" y="882"/>
			<point x="-258" y="893"/>
			<point x="-258" y="913" type="curve" smooth="yes"/>
			<point x="-258" y="934"/>
			<point x="-244" y="945"/>
			<point x="-227" y="945" type="curve" smooth="yes"/>
			<point x="-210" y="945"/>
			<point x="-197" y="934"/>
			<point x="-197" y="913" type="curve" smooth="yes"/>
			<point x="-197" y="893"/>
			<point x="-210" y="882"/>
		</contour>
	</outline>
</glyph>
<glyph name="nikhahit_maiTri-thai.narrow" format="2">
	<advance width="0"/>
	<anchor x="-308" y="500" name="top"/>
	<anchor x="-210" y="300" name="_top"/>
	<outline>
		<contour>
			<point x="-330" y="617" type="curve" smooth="yes"/>
			<point x="-280" y="617"/>
			<point x="-240" y="650"/>
			<point x="-240" y="704" type="curve" smooth="yes"/>
			<point x="-240" y="759"/>
			<point x="-280" y="792"/>
			<point x="-330" y="792" type="curve" smooth="yes"/>
			<point x="-382" y="792"/>
			<point x="-422" y="759"/>
			<point x="-422" y="704" type="curve" smooth="yes"/>
			<point x="-422" y="650"/>
			<point x="-382" y="617"/>
		</contour>
		<contour>
			<point x="-330" y="649" type="curve" smooth="yes"/>
			<point x="-361" y="649"/>
			<point x="-384" y="668"/>
			<point x="-384" y="704" type="curve" smooth="yes"/>
			<point x="-384" y="741"/>
			<point x="-361" y="760"/>
			<point x="-330" y="760" type="curve" smooth="yes"/>
			<point x="-301" y="760"/>
			<point x="-278" y="741"/>
			<point x="-278" y="704" type="curve" smooth="yes"/>
			<point x="-278" y="669"/>
			<point x="-301" y="649"/>
		</contour>
		<contour>
			<point x="-418" y="860" type="curve" smooth="yes"/>
			<point x="-386" y="860"/>
			<point x="-360" y="882"/>
			<point x="-360" y="915" type="curve" smooth="yes"/>
			<point x="-360" y="948"/>
			<point x="-384" y="967"/>
			<point x="-413" y="967" type="curve" smooth="yes"/>
			<point x="-423" y="967"/>
			<point x="-433" y="964"/>
			<point x="-441" y="957" type="curve"/>
			<point x="-443" y="959" type="line"/>
			<point x="-443" y="986"/>
			<point x="-431" y="1012"/>
			<point x="-403" y="1012" type="curve" smooth="yes"/>
			<point x="-375" y="1012"/>
			<point x="-365" y="989"/>
			<point x="-364" y="976" type="curve"/>
			<point x="-340" y="976" type="line"/>
			<point x="-340" y="990"/>
			<point x="-329" y="1012"/>
			<point x="-308" y="1012" type="curve" smooth="yes"/>
			<point x="-285" y="1012"/>
			<point x="-278" y="995"/>
			<point x="-278" y="970" type="curve" smooth="yes"/>
			<point x="-278" y="880" type="line" smooth="yes"/>
			<point x="-278" y="873"/>
			<point x="-275" y="868"/>
			<point x="-266" y="868" type="curve" smooth="yes"/>
			<point x="-221" y="868" type="line" smooth="yes"/>
			<point x="-178" y="868"/>
			<point x="-154" y="884"/>
			<point x="-154" y="934" type="curve" smooth="yes"/>
			<point x="-154" y="1035" type="line" smooth="yes"/>
			<point x="-154" y="1051"/>
			<point x="-161" y="1058"/>
			<point x="-174" y="1058" type="curve" smooth="yes"/>
			<point x="-185" y="1058"/>
			<point x="-191" y="1051"/>
			<point x="-191" y="1041" type="curve" smooth="yes"/>
			<point x="-191" y="932" type="line" smooth="yes"/>
			<point x="-191" y="903"/>
			<point x="-202" y="894"/>
			<point x="-226" y="894" type="curve" smooth="yes"/>
			<point x="-241" y="894" type="line"/>
			<point x="-241" y="974" type="line" smooth="yes"/>
			<point x="-241" y="1016"/>
			<point x="-259" y="1042"/>
			<point x="-301" y="1042" type="curve" smooth="yes"/>
			<point x="-325" y="1042"/>
			<point x="-346" y="1028"/>
			<point x="-352" y="1009" type="curve"/>
			<point x="-358" y="1027"/>
			<point x="-378" y="1042"/>
			<point x="-407" y="1042" type="curve" smooth="yes"/>
			<point x="-453" y="1042"/>
			<point x="-481" y="1005"/>
			<point x="-481" y="943" type="curve" smooth="yes"/>
			<point x="-481" y="885"/>
			<point x="-451" y="860"/>
		</contour>
		<contour>
			<point x="-417" y="882" type="curve" smooth="yes"/>
			<point x="-434" y="882"/>
			<point x="-448" y="893"/>
			<point x="-448" y="913" type="curve" smooth="yes"/>
			<point x="-448" y="934"/>
			<point x="-434" y="945"/>
			<point x="-417" y="945" type="curve" smooth="yes"/>
			<point x="-400" y="945"/>
			<point x="-387" y="934"/>
			<point x="-387" y="913" type="curve" smooth="yes"/>
			<point x="-387" y="893"/>
			<point x="-400" y="882"/>
		</contour>
	</outline>
</glyph>
